# xmcd
#
# Track frame offsets: 
#        150
#        11963
#        27825
#        46453
#        61377
#        76361
#        88742
#        103243
#        118321
#        138969
#        152701
#        165727
#        188669
#        206618
#
# Disc length: 3157 seconds
#
# Revision: 2
# Processed by: cddbd v1.5.2PL0 Copyright (c) Steve Scherf et al.
# Submitted via: ExactAudioCopy v0.99pb5
#
DISCID=c00c530e
DTITLE=Kenny "Blue" Ray - Git It!
DYEAR=1900
DGENRE=Blues
TTITLE0=Git It!
TTITLE1=Tacos and Tequila
TTITLE2=Brazilian Nights
TTITLE3=Stingy Brim
TTITLE4=Tone Jacked
TTITLE5=Gator Growl
TTITLE6=Mardi Gras Gumbo
TTITLE7=Boss Sauce
TTITLE8=Pak Cliff Stroll
TTITLE9=West Coast Wildman
TTITLE10=Soul Food and Lemon Bars
TTITLE11=The Cool World
TTITLE12=Blue Magic
TTITLE13=Late Night Thang
EXTD=
EXTT0=
EXTT1=
EXTT2=
EXTT3=
EXTT4=
EXTT5=
EXTT6=
EXTT7=
EXTT8=
EXTT9=
EXTT10=
EXTT11=
EXTT12=
EXTT13=
PLAYORDER=
